<svg width="242" height="242" viewBox="0 0 242 242" fill="none" xmlns="http://www.w3.org/2000/svg">
<rect width="242" height="242" rx="121" fill="white"/>
<path d="M189.912 160.606L189.911 160.605L131.756 126.129C130.996 125.679 130.531 124.862 130.531 123.979V46.5153C130.531 42.0884 126.942 38.5 122.515 38.5C118.088 38.5 114.5 42.0884 114.5 46.5153V129.965C114.5 133.071 116.274 135.773 118.878 137.105L118.892 137.113L118.906 137.12L181.774 174.391L189.912 160.606ZM189.912 160.606C193.709 162.849 194.98 167.757 192.736 171.567M189.912 160.606L192.736 171.567M192.736 171.567C190.492 175.364 185.585 176.635 181.775 174.391L192.736 171.567Z" fill="black" stroke="black"/>
</svg>
