<svg width="214" height="144" viewBox="0 0 214 144" fill="none" xmlns="http://www.w3.org/2000/svg">
<path d="M209.5 5L1.5 48L66 81L76 138.5L119.5 113.5L161.5 138.5L209.5 5Z" fill="white"/>
<path d="M209.935 0.786677L210.009 1.28114C210.122 1.26425 210.233 1.25781 210.368 1.25445L210.368 1.25444C210.599 1.24837 210.821 1.26946 211.046 1.31564L211.045 1.31574L211.056 1.3176L211.105 1.32661C211.227 1.34904 211.309 1.36392 211.391 1.39056L211.392 1.39096C211.64 1.47059 211.877 1.59067 212.11 1.74514L212.114 1.74747C212.168 1.78298 212.225 1.81217 212.256 1.82799L212.266 1.83322C212.294 1.84763 212.303 1.8534 212.306 1.85502C212.567 2.05435 212.793 2.28233 212.978 2.55399L212.981 2.55885C212.981 2.55962 212.985 2.56477 212.993 2.58003L212.997 2.58664C213.004 2.59888 213.015 2.6181 213.028 2.63838C213.032 2.64539 213.036 2.65214 213.04 2.65863C213.048 2.67436 213.057 2.69105 213.068 2.70821C213.088 2.74202 213.108 2.77304 213.119 2.78986C213.135 2.81646 213.141 2.82619 213.143 2.83102L213.148 2.84043C213.296 3.12118 213.396 3.41272 213.452 3.70996C213.452 3.71375 213.452 3.72016 213.452 3.73007L213.451 3.73777C213.451 3.76506 213.45 3.8258 213.456 3.88894L213.457 3.89616C213.49 4.16663 213.511 4.38414 213.492 4.58761L213.491 4.59318C213.49 4.60414 213.487 4.62228 213.479 4.66106L213.475 4.68281C213.468 4.71574 213.457 4.76444 213.45 4.80904C213.442 4.8571 213.439 4.87402 213.436 4.88438L213.432 4.89769L213.429 4.91118C213.424 4.9355 213.42 4.95761 213.417 4.97483C213.415 4.98988 213.412 5.00934 213.411 5.01752C213.407 5.0413 213.406 5.04521 213.406 5.04386L213.405 5.05144C213.377 5.16067 213.344 5.26622 213.305 5.36824L213.303 5.37397L163.435 140.728L163.435 140.729C163.114 141.604 162.41 142.284 161.528 142.578C161.211 142.683 160.883 142.735 160.562 142.735C159.978 142.735 159.395 142.566 158.893 142.242C158.892 142.242 158.892 142.241 158.892 142.241L117.562 115.377L117.286 115.198L117.013 115.38L77.5383 141.696L77.4938 141.726L77.4565 141.765C76.8773 142.363 76.1112 142.735 75.2788 142.735C75.2568 142.735 75.2341 142.734 75.2089 142.733C75.1844 142.732 75.1575 142.73 75.1265 142.729L75.1118 142.728H75.0971C75.0842 142.728 75.072 142.728 75.0606 142.729C75.0413 142.73 75.0244 142.732 75.0105 142.735C74.7484 142.731 74.4771 142.679 74.1955 142.598L74.1941 142.597C74.1504 142.585 74.1273 142.575 74.0904 142.56C74.0597 142.547 74.0192 142.53 73.9491 142.504C73.7476 142.425 73.556 142.325 73.3674 142.202C73.328 142.175 73.2915 142.157 73.2635 142.143C73.2499 142.137 73.2362 142.131 73.2249 142.126C73.2241 142.125 73.2233 142.124 73.2225 142.124C73.2058 142.106 73.1803 142.08 73.1466 142.053C72.9861 141.924 72.8376 141.766 72.6836 141.576C72.6589 141.545 72.6328 141.515 72.6112 141.492C72.595 141.474 72.5813 141.46 72.5725 141.451C72.5468 141.424 72.5417 141.417 72.5417 141.417L72.5156 141.378L72.5137 141.377C72.5102 141.366 72.5062 141.354 72.5019 141.343C72.4891 141.308 72.4697 141.262 72.4395 141.213C72.2866 140.955 72.175 140.685 72.1056 140.399L72.104 140.392C72.0772 140.288 72.0625 140.181 72.0445 140.037L72.0444 140.037C72.0146 139.801 72.017 139.565 72.0481 139.317L72.0494 139.307L72.0502 139.296C72.0534 139.259 72.0529 139.226 72.0521 139.205C72.0518 139.194 72.0511 139.182 72.0506 139.173L72.0594 139.12L72.044 139.034L61.6508 81.3604L61.6076 81.1206L61.392 81.0068L2.13266 49.7489C0.990535 49.1457 0.349977 47.8899 0.530801 46.6088C0.71133 45.3298 1.6786 44.303 2.94503 44.0392C2.94511 44.0392 2.94519 44.0391 2.94527 44.0391L209.762 1.29771L209.762 1.29784L209.768 1.29615C209.768 1.29617 209.769 1.29615 209.769 1.2961C209.772 1.29588 209.783 1.29509 209.807 1.2946L209.819 1.29442C209.856 1.29391 209.933 1.29285 210.011 1.28086L209.935 0.786677ZM209.935 0.786677C209.894 0.793009 209.853 0.793715 209.813 0.794419C209.762 0.795299 209.712 0.796178 209.66 0.808057L213.391 2.27244C213.17 1.94821 212.903 1.68099 212.603 1.45296C212.566 1.42523 212.525 1.40411 212.484 1.38287C212.451 1.36589 212.418 1.34883 212.386 1.32825C212.122 1.15367 211.844 1.01115 211.545 0.914945C211.429 0.877325 211.313 0.856257 211.195 0.834748C211.179 0.831812 211.162 0.828868 211.146 0.825872C210.886 0.772427 210.626 0.747485 210.355 0.754611C210.213 0.758173 210.077 0.765299 209.935 0.786677ZM71.5519 139.255C71.5163 139.54 71.5127 139.818 71.5484 140.099C71.5662 140.242 71.584 140.377 71.6196 140.516L71.5519 139.255ZM71.5519 139.255C71.5535 139.236 71.5523 139.216 71.5511 139.197C71.5495 139.172 71.548 139.147 71.5519 139.123M71.5519 139.255V139.123M71.5519 139.123L61.1587 81.4491L71.5519 139.123ZM172.973 28.0366L172.449 27.1888L68.1066 80.6335L67.7768 80.8025L67.8425 81.1672L75.6062 124.247L76.5762 124.306L86.3558 92.5238C86.3667 92.5035 86.3777 92.4798 86.3874 92.4529C86.3914 92.4456 86.4006 92.4288 86.4088 92.4127C86.4192 92.3924 86.4324 92.3648 86.4451 92.3318L86.4452 92.3318L86.4484 92.3232C86.5204 92.1252 86.6144 91.9359 86.7298 91.7483C86.7578 91.7045 86.7785 91.6707 86.7959 91.6423C86.8256 91.5938 86.8459 91.5608 86.8767 91.5196C86.9358 91.442 86.9935 91.3722 87.0567 91.303L87.0631 91.296L87.0687 91.2894C87.0687 91.2894 87.0687 91.2894 87.0688 91.2893C87.0692 91.2888 87.0733 91.2845 87.0852 91.2738C87.0935 91.2664 87.1015 91.2594 87.1147 91.2477C87.1267 91.2372 87.1421 91.2236 87.1585 91.2085L87.1658 91.2017L87.1729 91.1947C87.2208 91.1467 87.2597 91.1064 87.2934 91.0714C87.3688 90.9932 87.4187 90.9415 87.4873 90.8903C87.4876 90.8901 87.4879 90.8899 87.4882 90.8896L172.973 28.0366ZM81.1424 130.869L80.7384 132.203L81.8983 131.43L96.364 121.785L111.058 111.99L111.69 111.569L111.053 111.155L106.727 108.344L106.727 108.344L91.6062 98.5135L91.048 98.1506L90.8551 98.7878L81.1424 130.869ZM185.66 13.5382L185.331 12.6036L13.905 48.0303L12.5406 48.3123L13.7729 48.9622L64.1535 75.535L64.3834 75.6562L64.6147 75.5378L185.66 13.5382ZM158.491 134.675L159.016 135.017L159.232 134.429L203.47 14.3528L204.046 12.7914L202.705 13.7771L95.2667 92.7756L94.6845 93.2037L95.2903 93.5976L103.603 99.0027L103.603 99.0027L158.491 134.675Z" fill="black" stroke="black"/>
</svg>
