<svg width="107" height="77" viewBox="0 0 107 77" fill="none" xmlns="http://www.w3.org/2000/svg">
<path d="M21.5328 62.2678L7.2041 22.7635C6.62381 21.1119 5.48555 20.0406 3.78932 19.5496L2.31628 19.1478V17.7417H20.8632V19.0809L18.9885 19.5496C17.9618 19.8174 17.3815 20.2861 17.2476 20.9557C17.1583 21.6252 17.2922 22.4733 17.6493 23.5L27.2911 52.0904L36.9998 23.5C37.3569 22.4733 37.5131 21.6252 37.4685 20.9557C37.4685 20.2861 36.9551 19.8174 35.9285 19.5496L34.3215 19.0809V17.7417H44.298V19.1478L42.6241 19.5496C41.6867 19.7728 41.0171 20.1522 40.6154 20.6878C40.2583 21.2235 39.9235 21.96 39.6111 22.8974L26.2867 62.2678H21.5328Z" fill="#1A1A19"/>
<path d="M41.7703 45.4283C43.1763 45.4283 44.3816 45.7184 45.3859 46.2987C46.3903 46.879 47.1603 47.6825 47.6959 48.7091C48.2539 49.7135 48.5329 50.8741 48.5329 52.1909C48.5329 52.481 48.5217 52.76 48.4994 53.0278C48.4771 53.2733 48.4324 53.5077 48.3655 53.7309H38.2885C38.3108 56.0297 38.7349 57.6813 39.5607 58.6857C40.4088 59.69 41.6363 60.1922 43.2433 60.1922C44.3592 60.1922 45.2632 60.0136 45.955 59.6565C46.6469 59.2771 47.283 58.7526 47.8633 58.083L48.399 58.5852C47.7294 59.8128 46.8143 60.7725 45.6537 61.4643C44.5155 62.1339 43.154 62.4687 41.5694 62.4687C39.9847 62.4687 38.5898 62.1339 37.3846 61.4643C36.1794 60.7948 35.2308 59.8351 34.539 58.5852C33.8694 57.313 33.5346 55.7954 33.5346 54.0322C33.5346 52.202 33.9252 50.6509 34.7063 49.3787C35.5098 48.1065 36.5365 47.1357 37.7863 46.4661C39.0585 45.7742 40.3865 45.4283 41.7703 45.4283ZM41.6029 46.3991C40.9556 46.3991 40.3865 46.5888 39.8955 46.9683C39.4268 47.3254 39.0474 47.9726 38.7572 48.91C38.4894 49.8251 38.3332 51.1196 38.2885 52.7935H44.2811C44.5266 50.5393 44.4374 48.91 44.0133 47.9057C43.5892 46.9013 42.7858 46.3991 41.6029 46.3991ZM50.2379 62V61.3639L50.7401 61.1965C51.1865 61.0849 51.4878 60.8952 51.644 60.6274C51.8225 60.3596 51.9118 60.0025 51.9118 59.5561V49.747C51.8895 49.2559 51.8002 48.8877 51.644 48.6422C51.4878 48.3743 51.1865 48.1958 50.7401 48.1065L50.2379 47.9726V47.37L55.6949 45.4283L56.0966 45.7965L56.3979 48.7426V48.977C56.7327 48.352 57.1567 47.7717 57.6701 47.2361C58.1834 46.7004 58.7414 46.2652 59.344 45.9304C59.9466 45.5957 60.5492 45.4283 61.1518 45.4283C61.9999 45.4283 62.636 45.6514 63.0601 46.0978C63.4841 46.5442 63.6962 47.1133 63.6962 47.8052C63.6962 48.5641 63.4841 49.1443 63.0601 49.5461C62.636 49.9255 62.1227 50.1152 61.5201 50.1152C60.6273 50.1152 59.8573 49.7135 59.2101 48.91L59.1431 48.843C58.9199 48.5752 58.6633 48.4301 58.3731 48.4078C58.1053 48.3632 57.8375 48.4971 57.5696 48.8096C57.3465 49.0328 57.1344 49.3006 56.9336 49.613C56.755 49.9032 56.5876 50.2491 56.4314 50.6509V59.4222C56.4314 59.8462 56.5207 60.2033 56.6992 60.4935C56.8778 60.7613 57.1791 60.951 57.6031 61.0626L58.6075 61.3639V62H50.2379ZM64.7866 62V61.3304L65.5231 61.1296C65.8802 61.018 66.1145 60.8617 66.2261 60.6609C66.3377 60.4377 66.4047 60.1475 66.427 59.7904V53.1617C66.427 52.4252 66.427 51.8003 66.427 51.287C66.427 50.7736 66.4158 50.171 66.3935 49.4791C66.3935 49.0997 66.3377 48.8096 66.2261 48.6087C66.1145 48.3855 65.869 48.2293 65.4896 48.14L64.7866 47.9726V47.37L70.21 45.4283L70.6118 45.7965L70.8461 48.0396C71.6273 47.3254 72.4977 46.7116 73.4574 46.1983C74.4171 45.6849 75.3992 45.4283 76.4035 45.4283C77.5195 45.4283 78.3899 45.6514 79.0148 46.0978C79.6398 46.5442 80.1196 47.2249 80.4544 48.14C81.3025 47.2919 82.2399 46.6335 83.2666 46.1648C84.2932 45.6738 85.3087 45.4283 86.3131 45.4283C87.8308 45.4283 88.969 45.8077 89.7279 46.5665C90.4867 47.3254 90.8661 48.5194 90.8661 50.1487V59.8239C90.8661 60.5381 91.1786 60.9845 91.8035 61.163L92.4396 61.3304V62H84.907V61.3304L85.5096 61.163C86.1122 60.9622 86.4135 60.5046 86.4135 59.7904V49.9813C86.4135 49.0216 86.235 48.3743 85.8779 48.0396C85.5431 47.6825 84.9851 47.5039 84.204 47.5039C83.6013 47.5039 83.0322 47.6267 82.4966 47.8722C81.9609 48.1177 81.3695 48.4971 80.7222 49.0104C80.8561 49.68 80.9231 50.45 80.9231 51.3204V59.8239C80.9454 60.2033 81.0124 60.5046 81.124 60.7278C81.2579 60.9287 81.5034 61.0738 81.8605 61.163L82.4296 61.3304V62H74.8635V61.3304L75.5666 61.1296C75.9237 61.018 76.158 60.8617 76.2696 60.6609C76.4035 60.4377 76.4705 60.1475 76.4705 59.7904V50.0148C76.4705 49.0997 76.3031 48.4525 75.9683 48.073C75.6335 47.6936 75.0644 47.5039 74.2609 47.5039C73.2342 47.5039 72.1295 47.9949 70.9466 48.977V59.8239C70.9466 60.5604 71.259 61.0068 71.884 61.163L72.4531 61.3304V62H64.7866ZM97.702 43.587C96.9654 43.587 96.3405 43.3526 95.8272 42.8839C95.3139 42.4152 95.0572 41.8238 95.0572 41.1096C95.0572 40.373 95.3139 39.7816 95.8272 39.3352C96.3405 38.8665 96.9654 38.6322 97.702 38.6322C98.4385 38.6322 99.0634 38.8665 99.5768 39.3352C100.09 39.7816 100.347 40.373 100.347 41.1096C100.347 41.8238 100.09 42.4152 99.5768 42.8839C99.0634 43.3526 98.4385 43.587 97.702 43.587ZM93.852 62V61.3639L94.3541 61.23C94.8005 61.0961 95.1018 60.8952 95.2581 60.6274C95.4143 60.3596 95.5036 60.0025 95.5259 59.5561V53.3961C95.5259 52.7042 95.5259 52.0681 95.5259 51.4878C95.5259 50.8852 95.5147 50.2714 95.4924 49.6465C95.4924 49.2001 95.4031 48.8542 95.2246 48.6087C95.0683 48.3409 94.767 48.1623 94.3207 48.073L93.852 47.9726V47.37L99.7107 45.4283L100.112 45.7965L100.012 50.5504V59.5896C100.012 60.0359 100.09 60.393 100.246 60.6609C100.425 60.9287 100.726 61.1296 101.15 61.2635L101.518 61.3639V62H93.852Z" fill="#1A1A19"/>
</svg>
