<svg width="191" height="212" viewBox="0 0 191 212" fill="none" xmlns="http://www.w3.org/2000/svg">
<path d="M16.5871 154.322C12.2179 145.545 4.46085 142.493 1.63243 145.322C-1.86755 148.822 10.55 151.055 5.13237 172.029C-0.367615 193.322 15.6324 209.529 39.6324 210.529C52.1324 211.05 73.4193 207.822 76.6324 183.322C80.6324 152.822 83.6199 147.822 93.6324 147.822C119.632 147.822 96.1324 198.125 150.132 192.822C174.632 190.415 184.525 154.145 186.632 147.822C194.632 123.822 174.632 109.322 172.632 89.3216C171.637 79.3712 187.632 62.3204 189.132 44.3216C189.411 40.9791 194.632 -3.17842 160.132 1.3216C136.632 4.38683 152.188 31.0831 150.632 49.3216C149.891 58.0177 137.632 74.8215 143.132 94.3215C149.479 116.822 164.632 120.822 161.132 137.322C159.966 142.822 150.132 169.322 141.132 167.822C135.36 166.86 130.842 162.125 127.632 149.822C121.632 126.822 108.632 119.822 92.1324 119.822C75.6324 119.822 55.6324 131.822 52.1324 183.322C51.2015 197.02 40.1324 194.582 38.6324 194.582C28.8719 194.582 21.6741 188.065 19.6324 178.582C17.5871 169.082 20.7359 162.655 16.5871 154.322Z" fill="#FC7D6C" stroke="#D44C42"/>
<path d="M173.347 89.8278C172.349 79.9402 188.628 58.2057 190.132 40.3204C188.628 48.7668 163.562 49.2636 163.562 49.2636C147.018 58.7037 154.665 78.0808 154.665 78.0808C143.135 91.9925 158.174 103.42 158.174 103.42C156.042 115.344 170.206 126.772 170.206 126.772C162.559 138.199 168.575 154.595 168.575 154.595C156.042 161.551 144.512 184.406 144.512 184.406C134.358 169.501 123.957 167.017 123.957 167.017C127.467 153.105 117.567 144.658 117.567 144.658C109.92 122.797 95.5087 131.74 95.5087 131.74C77.0924 122.797 71.3181 140.684 71.3181 140.684C58.7849 146.149 63.9251 172.482 63.9251 172.482C54.7743 180.431 56.4052 202.79 56.4052 202.79C48.8853 198.815 28.331 203.286 28.331 203.286C23.3177 196.331 11.7872 186.89 11.7872 186.89C6.77392 180.928 11.7872 166.52 11.7872 166.52C11.7872 166.52 9.78188 155.092 1.76066 146.149C-1.74861 149.627 10.8347 151.172 5.40268 172.014C-0.111886 193.172 15.9305 209.278 39.9942 210.271C52.5274 210.789 73.8708 207.581 77.0924 183.235C81.103 152.928 84.0984 147.959 94.1375 147.959C120.206 147.959 96.6441 197.946 150.787 192.675C175.352 190.284 185.271 154.243 187.384 147.959C195.405 124.11 175.352 109.702 173.347 89.8278Z" fill="#F76052"/>
<path d="M6.13239 166.32C6.13239 166.32 9.7774 167.632 12.1324 167.32C14.9905 166.943 18.6324 163.82 18.6324 163.82M5.13239 187.32C5.13239 187.32 10.9385 187.838 14.1324 186.32C17.0032 184.956 20.1324 180.82 20.1324 180.82M21.1324 205.82C21.1324 205.82 26.8315 204.069 29.1324 201.32C31.1573 198.901 32.1324 193.82 32.1324 193.82M55.6324 208.82C55.6324 208.82 56.1845 202.425 54.6324 198.82C53.3658 195.879 49.6324 192.32 49.6324 192.32M53.1324 174.32C53.1324 174.32 59.7307 171.998 64.1324 171.82C69.4897 171.604 77.6324 174.32 77.6324 174.32M62.1324 139.82C62.1324 139.82 69.5694 140.172 73.6324 142.32C78.7647 145.034 83.6324 153.32 83.6324 153.32M95.1324 147.82C95.1324 147.82 96.7284 140.485 96.1324 135.82C95.2577 128.975 88.6324 119.82 88.6324 119.82M121.632 135.82C121.632 135.82 119.319 143.769 116.132 147.82C113.04 151.751 106.132 155.82 106.132 155.82M132.132 161.32C132.132 161.32 127.795 167.651 123.632 169.82C119.248 172.105 111.132 171.82 111.132 171.82M137.132 193.32C137.132 193.32 143.684 187.431 145.132 182.32C146.684 176.843 143.632 167.82 143.632 167.82M184.632 153.32C184.632 153.32 175.965 156.162 170.632 154.82C165.063 153.419 158.632 146.32 158.632 146.32M160.132 125.32C160.132 125.32 167.993 126.839 172.632 125.32C177.532 123.717 183.132 117.32 183.132 117.32M145.132 100.82C145.132 100.82 154.001 102.534 159.632 101.82C165.575 101.067 174.132 96.8204 174.132 96.8204M144.132 69.8204C144.132 69.8204 151.278 76.7315 157.132 78.3204C164.754 80.3892 177.132 75.3204 177.132 75.3204M150.632 46.8204C150.632 46.8204 161.408 53.8916 169.132 53.8204C177.697 53.7414 189.132 44.8204 189.132 44.8204" stroke="#D44C42"/>
<path d="M163.132 58.3204C172.132 61.3204 180.632 56.3204 180.632 56.3204M157.132 82.8204C162.132 84.3204 168.632 82.8204 168.632 82.8204M160.632 107.32C165.632 107.32 171.632 103.82 171.632 103.82M174.132 130.32C178.132 130.32 183.132 126.82 183.132 126.82M165.132 157.32C168.132 159.82 174.132 160.82 174.132 160.82M11.6324 172.32C11.6324 172.32 13.6324 170.82 16.1324 170.82M14.6324 189.32C14.6324 189.32 16.1324 187.82 18.1324 187.32M34.1324 201.82C34.1324 201.82 34.1324 199.82 35.1324 198.32M65.1324 176.32C67.6324 178.32 70.6324 176.32 70.6324 176.32M72.1324 147.82C75.1324 149.82 76.6324 153.82 76.6324 153.82M88.1324 131.82C90.1324 136.82 89.1324 141.32 89.1324 141.32M106.132 131.82C106.632 135.82 104.632 141.32 104.632 141.32M121.132 151.82C117.132 153.82 112.632 158.32 112.632 158.32M129.632 172.32C127.632 174.82 122.132 176.32 122.132 176.32" stroke="#FB7466" stroke-width="3" stroke-linecap="round"/>
<ellipse cx="160.058" cy="20.5018" rx="5" ry="6.5" transform="rotate(-8.69918 160.058 20.5018)" fill="#FAE4E4"/>
<ellipse cx="173.132" cy="16.8204" rx="5" ry="6.5" transform="rotate(-5.33259 173.132 16.8204)" fill="#FAE4E4"/>
<ellipse cx="157.632" cy="19.3204" rx="1.5" ry="2" fill="#010000"/>
<ellipse cx="170.632" cy="15.3204" rx="1.5" ry="2" fill="black"/>
<path d="M164.632 32.3204C164.632 32.3204 172.632 37.3204 176.132 28.8204" stroke="#AE2821" stroke-width="2" stroke-linecap="round"/>
<path d="M169.132 6.8204C169.132 6.8204 170.632 5.32037 175.132 6.82039M153.632 11.8204C153.632 11.8204 153.632 8.32037 158.632 7.82038" stroke="black" stroke-width="2" stroke-linecap="round"/>
</svg>
